<svg width="62" height="53" viewBox="0 0 62 53" fill="none" xmlns="http://www.w3.org/2000/svg">
<path d="M16.7917 35.3334C18.8153 35.3334 20.7851 35.5266 22.7011 35.9131C24.6171 36.2995 26.5223 36.8792 28.4167 37.6521V15.9C26.6514 15.0167 24.7785 14.3542 22.798 13.9125C20.8174 13.4709 18.8153 13.25 16.7917 13.25C15.2417 13.25 13.7025 13.3789 12.174 13.6365C10.6455 13.8941 9.17087 14.2806 7.75004 14.7959V36.6584C9.25699 36.2167 10.7532 35.8855 12.2386 35.6646C13.724 35.4438 15.2417 35.3334 16.7917 35.3334ZM33.5834 37.6521C35.4778 36.8792 37.383 36.2995 39.299 35.9131C41.215 35.5266 43.1848 35.3334 45.2084 35.3334C46.7584 35.3334 48.2761 35.4438 49.7615 35.6646C51.2469 35.8855 52.7431 36.2167 54.25 36.6584V14.7959C52.8292 14.2806 51.3546 13.8941 49.8261 13.6365C48.2976 13.3789 46.7584 13.25 45.2084 13.25C43.1848 13.25 41.1827 13.4709 39.2021 13.9125C37.2216 14.3542 35.3487 15.0167 33.5834 15.9V37.6521ZM31 44.1667C28.9334 42.7681 26.6945 41.6823 24.2834 40.9094C21.8723 40.1365 19.375 39.75 16.7917 39.75C14.9834 39.75 13.2073 39.9525 11.4636 40.3573C9.71983 40.7622 8.05143 41.3327 6.45837 42.0688C5.55421 42.4737 4.68233 42.4552 3.84275 42.0136C3.00317 41.5719 2.58337 40.9278 2.58337 40.0813V13.4709C2.58337 13.066 2.70178 12.6796 2.93858 12.3115C3.17539 11.9434 3.5306 11.6674 4.00421 11.4834C5.98476 10.6 8.05143 9.93754 10.2042 9.49587C12.357 9.05421 14.5528 8.83337 16.7917 8.83337C19.2889 8.83337 21.7323 9.10942 24.1219 9.6615C26.5115 10.2136 28.8042 11.0417 31 12.1459C33.1959 11.0417 35.4886 10.2136 37.8782 9.6615C40.2677 9.10942 42.7112 8.83337 45.2084 8.83337C47.4473 8.83337 49.6431 9.05421 51.7959 9.49587C53.9487 9.93754 56.0153 10.6 57.9959 11.4834C58.4695 11.6674 58.8247 11.9434 59.0615 12.3115C59.2983 12.6796 59.4167 13.066 59.4167 13.4709V40.0813C59.4167 40.9278 58.9969 41.5719 58.1573 42.0136C57.3177 42.4552 56.4459 42.4737 55.5417 42.0688C53.9487 41.3327 52.2802 40.7622 50.5365 40.3573C48.7927 39.9525 47.0167 39.75 45.2084 39.75C42.625 39.75 40.1278 40.1365 37.7167 40.9094C35.3056 41.6823 33.0667 42.7681 31 44.1667Z" fill="#005695"/>
</svg>
